<?xml version="1.0" standalone="no"?>
<!DOCTYPE svg PUBLIC "-//W3C//DTD SVG 20010904//EN"
 "http://www.w3.org/TR/2001/REC-SVG-20010904/DTD/svg10.dtd">
<svg version="1.0" xmlns="http://www.w3.org/2000/svg"
 width="1200.000000pt" height="630.000000pt" viewBox="0 0 1200.000000 630.000000"
 preserveAspectRatio="xMidYMid meet">

<g transform="translate(0.000000,630.000000) scale(0.100000,-0.100000)"
fill="#000000" stroke="none">
<path d="M3070 4580 l0 -100 390 0 390 0 0 100 0 100 -390 0 -390 0 0 -100z"/>
<path d="M6998 4580 l-3 -100 588 0 588 0 -3 98 -3 97 -582 3 -582 2 -3 -100z"/>
<path d="M2682 3548 l3 -923 190 0 190 0 2 923 2 922 -194 0 -195 0 2 -922z"/>
<path d="M3860 4468 c-6 -33 -9 -150 -4 -170 l6 -28 189 0 189 0 0 100 0 100
-190 0 c-104 0 -190 -1 -190 -2z"/>
<path d="M6608 4393 c2 -42 1 -87 -2 -100 l-6 -23 -1176 0 -1175 0 3 -102 3
-103 1352 -2 c744 -2 1359 0 1368 3 13 5 15 36 15 205 l0 199 -193 0 -193 0 4
-77z"/>
<path d="M8167 4338 c-2 -73 -2 -490 1 -925 l4 -793 -196 0 -196 0 0 -100 0
-100 195 0 195 0 0 -193 c0 -139 4 -198 13 -210 11 -16 32 -17 192 -15 l180 3
3 413 2 412 195 0 195 0 0 100 0 100 -195 0 c-179 0 -195 1 -195 18 0 9 0 333
0 720 l0 702 -194 0 -195 0 -4 -132z"/>
<path d="M4248 3035 l-3 -205 198 0 197 0 -2 203 -3 202 -192 3 -192 2 -3
-205z"/>
<path d="M6607 3234 c-4 -4 -7 -97 -7 -206 l0 -198 195 0 195 0 -2 203 -3 202
-186 3 c-102 1 -188 -1 -192 -4z"/>
<path d="M8960 3141 c0 -76 3 -100 14 -104 19 -8 714 -8 743 -1 23 6 24 9 21
103 l-3 96 -387 3 -388 2 0 -99z"/>
<path d="M9740 2930 l0 -100 193 2 192 3 3 98 3 97 -196 0 -195 0 0 -100z"/>
<path d="M5424 2816 c-3 -7 -4 -53 -2 -102 l3 -89 190 0 190 0 0 100 0 100
-188 2 c-146 2 -189 -1 -193 -11z"/>
<path d="M8978 2823 c-17 -4 -18 -32 -18 -414 l0 -409 188 2 187 3 3 308 2
307 188 0 c103 0 193 4 200 8 9 6 12 34 10 103 l-3 94 -370 2 c-203 0 -378 -1
-387 -4z"/>
<path d="M10203 2822 c-35 -2 -63 -7 -63 -12 -1 -6 -1 -49 -1 -97 l-1 -88 191
-3 191 -2 0 100 c0 88 -2 100 -17 101 -61 3 -248 4 -300 1z"/>
<path d="M3070 2520 l0 -100 190 0 c220 0 203 -10 198 120 l-3 75 -192 3 -193
2 0 -100z"/>
<path d="M9740 2520 l0 -100 195 0 196 0 -3 98 -3 97 -192 3 -193 2 0 -100z"/>
<path d="M3470 2205 l0 -205 188 2 187 3 3 102 3 102 707 3 c389 2 1184 1
1767 -2 l1060 -5 5 -100 5 -100 185 0 185 0 3 203 2 202 -2150 0 -2150 0 0
-205z"/>
<path d="M3070 1695 l0 -305 195 0 195 0 -2 303 -3 302 -192 3 -193 2 0 -305z"/>
<path d="M7780 1900 l0 -100 195 0 196 0 -3 98 -3 97 -192 3 -193 2 0 -100z"/>
<path d="M8563 1900 l2 -100 193 0 192 0 0 100 0 100 -194 0 -194 0 1 -100z"/>
<path d="M4638 1588 l-3 -203 -585 -3 -585 -2 0 -98 0 -97 2153 -3 2152 -2 0
100 0 100 -586 2 -586 3 2 203 1 202 -196 0 -195 0 0 -205 0 -205 -590 0 -590
0 -1 183 c-1 100 -1 192 -2 205 l0 22 -193 0 -194 0 -2 -202z"/>
<path d="M8172 1693 l3 -98 190 0 190 0 3 98 3 97 -196 0 -196 0 3 -97z"/>
<path d="M7780 1490 l0 -100 195 0 196 0 -3 98 -3 97 -192 3 -193 2 0 -100z"/>
</g>
</svg>
